<svg width="96" height="96" viewBox="0 0 115 115" fill="none" xmlns="http://www.w3.org/2000/svg">
<g clip-path="url(#clip0_10_12)">
<path d="M57.5 115C89.2564 115 115 89.2564 115 57.5C115 25.7436 89.2564 0 57.5 0C25.7436 0 0 25.7436 0 57.5C0 89.2564 25.7436 115 57.5 115Z" fill="white"/>
<path d="M18.9645 83.2542H70.5701C72.6045 83.2536 74.6256 82.9265 76.5564 82.2854L86.9904 78.8249" stroke="black" stroke-width="2" stroke-miterlimit="10"/>
<path d="M84.8296 84.6983L76.5564 88.4555C74.6256 89.0966 72.6045 89.4237 70.5701 89.4243H21.0334C20.7633 89.424 20.496 89.3699 20.247 89.2652C19.998 89.1605 19.7723 89.0073 19.5832 88.8145C19.394 88.6216 19.2451 88.3931 19.1452 88.1421C19.0453 87.8912 18.9964 87.6228 19.0012 87.3527L19.4607 63.1975C19.4788 62.2241 19.6838 61.2632 20.0646 60.3671L21.2435 57.5814C21.4961 56.9859 21.8733 56.4514 22.3497 56.014C22.8262 55.5765 23.3908 55.2461 24.0056 55.0451L41.3764 49.3607C41.8981 49.1903 42.4632 49.209 42.9726 49.4135C43.4819 49.618 43.9031 49.9953 44.1621 50.4792C45.366 52.7976 46.2939 55.2491 46.9268 57.7836C48.5022 63.8066 59.0438 68.79 83.8528 74.0359C84.6745 74.209 85.418 74.6435 85.9722 75.2744C86.5264 75.9053 86.8615 76.6986 86.9274 77.5357C87.0455 79.0927 86.8145 80.4239 86.4023 82.6608C86.3239 83.1021 86.14 83.5179 85.8661 83.8727C85.5923 84.2275 85.2366 84.5107 84.8296 84.6983Z" stroke="black" stroke-width="2" stroke-miterlimit="10"/>
<path d="M19.269 73.2718C19.269 73.2718 20.5398 69.47 25.3971 70.4546C30.2544 71.4391 35.243 70.578 36.7527 69.3334C38.2624 68.0889 40.4942 68.6744 41.9382 69.3334C43.0593 69.8454 47.5858 72.2583 49.5524 73.3086C50.4906 73.7979 51.2572 74.5618 51.75 75.4983C52.2751 76.5249 52.5718 77.9033 51.6528 79.3159C49.8149 82.1383 48.174 83.2542 48.174 83.2542" stroke="black" stroke-width="2" stroke-miterlimit="10"/>
<path d="M25.3971 70.4546C25.3971 70.4546 24.2813 67.3039 26.7099 65.7942C26.7099 65.7942 34.5079 62.3363 46.6642 56.8121" stroke="black" stroke-width="2" stroke-miterlimit="10"/>
<path d="M41.484 59.1594C41.484 59.1594 45.3961 68.6114 63.5546 73.768C64.4434 74.0377 65.4029 73.9432 66.2221 73.5055C67.2277 72.9462 68.3961 71.9564 68.5851 70.3417" stroke="black" stroke-width="2" stroke-miterlimit="10"/>
<path d="M96.0355 31.7458H44.4299C42.3955 31.7465 40.3744 32.0736 38.4436 32.7146L28.0096 36.1751" stroke="black" stroke-width="2" stroke-miterlimit="10"/>
<path d="M30.1704 30.3017L38.4436 26.5445C40.3744 25.9034 42.3955 25.5763 44.4299 25.5757H93.9665C94.2367 25.576 94.504 25.6301 94.753 25.7348C95.002 25.8395 95.2277 25.9927 95.4168 26.1855C95.606 26.3784 95.7549 26.6069 95.8548 26.8579C95.9547 27.1088 96.0036 27.3772 95.9987 27.6473L95.5393 51.8025C95.5212 52.7759 95.3161 53.7368 94.9354 54.6329L93.7565 57.4186C93.5039 58.0141 93.1267 58.5486 92.6503 58.986C92.1738 59.4235 91.6092 59.7539 90.9944 59.9549L73.6236 65.6393C73.1019 65.8097 72.5368 65.791 72.0274 65.5865C71.518 65.382 71.0969 65.0047 70.8379 64.5208C69.634 62.2024 68.7061 59.7509 68.0732 57.2164C66.4899 51.1986 55.9562 46.21 31.1471 40.9589C30.3255 40.7857 29.5819 40.3512 29.0277 39.7203C28.4735 39.0895 28.1385 38.2961 28.0726 37.459C27.9544 35.9021 28.1855 34.5709 28.5977 32.3339C28.6768 31.8936 28.8611 31.4788 29.135 31.125C29.4088 30.7712 29.764 30.4888 30.1704 30.3017Z" stroke="black" stroke-width="2" stroke-miterlimit="10"/>
<path d="M95.7309 41.7282C95.7309 41.7282 94.4602 45.53 89.6029 44.5454C84.7456 43.5609 79.757 44.422 78.2473 45.6666C76.7376 46.9111 74.5058 46.3256 73.0618 45.6666C71.9407 45.1414 67.4142 42.7417 65.4476 41.6914C64.5094 41.2021 63.7427 40.4382 63.25 39.5017C62.7249 38.4751 62.4282 37.0967 63.3472 35.6841C65.1851 32.8617 66.826 31.7458 66.826 31.7458" stroke="black" stroke-width="2" stroke-miterlimit="10"/>
<path d="M89.6028 44.5454C89.6028 44.5454 90.7187 47.6961 88.29 49.2058C88.29 49.2058 80.4921 52.6637 68.3357 58.1879" stroke="black" stroke-width="2" stroke-miterlimit="10"/>
<path d="M73.516 55.8406C73.516 55.8406 69.6039 46.3886 51.4455 41.232C50.5566 40.9623 49.5971 41.0568 48.7779 41.4945C47.7723 42.0538 46.6039 43.0436 46.4149 44.6583" stroke="black" stroke-width="2" stroke-miterlimit="10"/>
</g>
<defs>
<clipPath id="clip0_10_12">
<rect width="115" height="115" fill="white"/>
</clipPath>
</defs>
</svg>
