<svg width="20" height="19" viewBox="0 0 36 35" fill="none" xmlns="http://www.w3.org/2000/svg">
<path d="M28.8 28.0273C26.802 28.0273 25.2 29.5527 25.2 31.4552C25.2 32.3643 25.5793 33.2362 26.2544 33.879C26.9295 34.5219 27.8452 34.883 28.8 34.883C29.7548 34.883 30.6705 34.5219 31.3456 33.879C32.0207 33.2362 32.4 32.3643 32.4 31.4552C32.4 30.546 32.0207 29.6742 31.3456 29.0313C30.6705 28.3885 29.7548 28.0273 28.8 28.0273ZM0 0.604614V4.03245H3.6L10.08 17.0411L7.632 21.2402C7.362 21.7201 7.2 22.2857 7.2 22.8856C7.2 23.7947 7.57928 24.6666 8.25442 25.3094C8.92955 25.9523 9.84522 26.3134 10.8 26.3134H32.4V22.8856H11.556C11.4367 22.8856 11.3222 22.8404 11.2378 22.7601C11.1534 22.6797 11.106 22.5707 11.106 22.4571C11.106 22.3714 11.124 22.3028 11.16 22.2514L12.78 19.4577H26.19C27.54 19.4577 28.728 18.7379 29.34 17.6924L35.784 6.60333C35.91 6.32911 36 6.03774 36 5.74637C36 5.29181 35.8104 4.85587 35.4728 4.53445C35.1352 4.21303 34.6774 4.03245 34.2 4.03245H7.578L5.886 0.604614M10.8 28.0273C8.802 28.0273 7.2 29.5527 7.2 31.4552C7.2 32.3643 7.57928 33.2362 8.25442 33.879C8.92955 34.5219 9.84522 34.883 10.8 34.883C11.7548 34.883 12.6705 34.5219 13.3456 33.879C14.0207 33.2362 14.4 32.3643 14.4 31.4552C14.4 30.546 14.0207 29.6742 13.3456 29.0313C12.6705 28.3885 11.7548 28.0273 10.8 28.0273Z" fill="black"/>
</svg>
