<svg width="35" height="35" viewBox="0 0 54 54" fill="none" xmlns="http://www.w3.org/2000/svg">
<circle cx="27" cy="27" r="27" transform="rotate(-180 27 27)" fill="black"/>
<path d="M24.61 18.2286L15 27.4267L24.61 36.6247C24.6968 36.7332 24.8071 36.8227 24.9333 36.8871C25.0596 36.9516 25.1989 36.9894 25.3419 36.9981C25.4849 37.0068 25.6281 36.9861 25.762 36.9375C25.8958 36.8889 26.0172 36.8134 26.1177 36.7163C26.2183 36.6191 26.2958 36.5026 26.3449 36.3744C26.3941 36.2463 26.4137 36.1096 26.4025 35.9736C26.3914 35.8376 26.3497 35.7055 26.2802 35.5862C26.2108 35.4669 26.1152 35.3632 26 35.2821L18.81 28.3788L37.94 28.3788C38.2052 28.3788 38.4596 28.2785 38.6471 28.1C38.8346 27.9214 38.94 27.6792 38.94 27.4267C38.94 27.1741 38.8346 26.9319 38.6471 26.7534C38.4596 26.5748 38.2052 26.4745 37.94 26.4745L18.81 26.4745L26 19.5712C26.187 19.3919 26.2915 19.1492 26.2906 18.8965C26.2896 18.6439 26.1833 18.4019 25.995 18.2239C25.8067 18.0458 25.5518 17.9463 25.2865 17.9472C25.0211 17.9481 24.767 18.0493 24.58 18.2286L24.61 18.2286Z" fill="white"/>
</svg>
