<svg width="35" height="35" viewBox="0 0 54 54" fill="none" xmlns="http://www.w3.org/2000/svg">
<circle cx="27" cy="27" r="27" fill="black"/>
<path d="M29.39 35.7714L39 26.5733L29.39 17.3753C29.3032 17.2668 29.1929 17.1773 29.0667 17.1129C28.9404 17.0484 28.8011 17.0106 28.6581 17.0019C28.5151 16.9932 28.3719 17.0139 28.238 17.0625C28.1042 17.1111 27.9828 17.1866 27.8823 17.2837C27.7817 17.3809 27.7042 17.4974 27.6551 17.6256C27.6059 17.7537 27.5863 17.8904 27.5975 18.0264C27.6086 18.1624 27.6503 18.2945 27.7198 18.4138C27.7892 18.5331 27.8848 18.6368 28 18.7179L35.19 25.6212L16.06 25.6212C15.7948 25.6212 15.5404 25.7215 15.3529 25.9001C15.1654 26.0786 15.06 26.3208 15.06 26.5733C15.06 26.8259 15.1654 27.0681 15.3529 27.2466C15.5404 27.4252 15.7948 27.5255 16.06 27.5255L35.19 27.5255L28 34.4288C27.813 34.6081 27.7085 34.8508 27.7094 35.1035C27.7104 35.3561 27.8167 35.5981 28.005 35.7761C28.1933 35.9542 28.4482 36.0537 28.7135 36.0528C28.9789 36.0519 29.233 35.9507 29.42 35.7714L29.39 35.7714Z" fill="white"/>
</svg>
