<svg width="202" height="38" viewBox="0 0 202 38" fill="none" xmlns="http://www.w3.org/2000/svg">
<path d="M177.16 24.3923L187.903 18.2091L177.16 12.026V24.3923ZM201.089 8.25431C201.358 9.223 201.545 10.5215 201.669 12.1703C201.814 13.8191 201.876 15.2412 201.876 16.4779L202 18.2091C202 22.7228 201.669 26.0411 201.089 28.164C200.572 30.0189 199.371 31.2143 197.508 31.7295C196.535 31.9975 194.755 32.183 192.023 32.3066C189.332 32.4509 186.868 32.5127 184.591 32.5127L181.3 32.6364C172.627 32.6364 167.224 32.3066 165.092 31.7295C163.229 31.2143 162.028 30.0189 161.511 28.164C161.242 27.1953 161.055 25.8968 160.931 24.248C160.786 22.5991 160.724 21.177 160.724 19.9404L160.6 18.2091C160.6 13.6955 160.931 10.3772 161.511 8.25431C162.028 6.39938 163.229 5.20398 165.092 4.68872C166.065 4.42078 167.845 4.23529 170.577 4.11163C173.268 3.96735 175.732 3.90552 178.009 3.90552L181.3 3.78186C189.973 3.78186 195.376 4.11163 197.508 4.68872C199.371 5.20398 200.572 6.39938 201.089 8.25431Z" fill="white"/>
<path d="M94.1091 18.8835C94.1091 8.46986 85.6786 0.0181885 75.291 0.0181885C64.9033 0.0181885 56.4728 8.46986 56.4728 18.8835C56.4728 28.0144 62.9462 35.6171 71.5273 37.3716V24.5431H67.7637V18.8835H71.5273V14.1672C71.5273 10.5262 74.4818 7.56433 78.1137 7.56433H82.8182V13.2239H79.0546C78.0196 13.2239 77.1728 14.0729 77.1728 15.1105V18.8835H82.8182V24.5431H77.1728V37.6546C86.676 36.7113 94.1091 28.6746 94.1091 18.8835Z" fill="white"/>
<path d="M138.537 1.27271H144.501L131.472 16.154L146.8 36.4H134.799L125.4 24.1193L114.644 36.4H108.677L122.613 20.4824L107.909 1.27432H120.215L128.711 12.4992L138.537 1.27271ZM136.445 32.8343H139.749L118.419 4.65216H114.874L136.445 32.8343Z" fill="white"/>
<path d="M18.8364 12.6305C15.4192 12.6305 12.6305 15.4192 12.6305 18.8364C12.6305 22.2535 15.4192 25.0422 18.8364 25.0422C22.2535 25.0422 25.0422 22.2535 25.0422 18.8364C25.0422 15.4192 22.2535 12.6305 18.8364 12.6305ZM37.4492 18.8364C37.4492 16.2665 37.4725 13.7199 37.3282 11.1547C37.1838 8.1752 36.5041 5.53085 34.3253 3.35206C32.1419 1.16861 29.5022 0.493557 26.5227 0.349235C23.9528 0.204914 21.4062 0.228191 18.841 0.228191C16.2712 0.228191 13.7246 0.204914 11.1594 0.349235C8.17984 0.493557 5.53549 1.17327 3.3567 3.35206C1.17325 5.53551 0.498196 8.1752 0.353874 11.1547C0.209552 13.7246 0.23283 16.2712 0.23283 18.8364C0.23283 21.4016 0.209552 23.9528 0.353874 26.518C0.498196 29.4976 1.1779 32.1419 3.3567 34.3207C5.54014 36.5042 8.17984 37.1792 11.1594 37.3235C13.7292 37.4678 16.2758 37.4446 18.841 37.4446C21.4109 37.4446 23.9575 37.4678 26.5227 37.3235C29.5022 37.1792 32.1466 36.4995 34.3253 34.3207C36.5088 32.1373 37.1838 29.4976 37.3282 26.518C37.4771 23.9528 37.4492 21.4062 37.4492 18.8364ZM18.8364 28.3849C13.5523 28.3849 9.28785 24.1204 9.28785 18.8364C9.28785 13.5523 13.5523 9.28787 18.8364 9.28787C24.1204 9.28787 28.3849 13.5523 28.3849 18.8364C28.3849 24.1204 24.1204 28.3849 18.8364 28.3849ZM28.7759 11.1268C27.5422 11.1268 26.5459 10.1305 26.5459 8.8968C26.5459 7.66309 27.5422 6.6668 28.7759 6.6668C30.0097 6.6668 31.0059 7.66309 31.0059 8.8968C31.0063 9.18976 30.9489 9.4799 30.8369 9.75063C30.725 10.0213 30.5608 10.2673 30.3536 10.4745C30.1465 10.6816 29.9005 10.8459 29.6298 10.9578C29.359 11.0697 29.0689 11.1272 28.7759 11.1268Z" fill="white"/>
</svg>
